<?xml version="1.0" encoding="utf-8"?>
<!-- Generator: Adobe Illustrator 16.0.0, SVG Export Plug-In . SVG Version: 6.00 Build 0)  -->
<!DOCTYPE svg PUBLIC "-//W3C//DTD SVG 1.1//EN" "http://www.w3.org/Graphics/SVG/1.1/DTD/svg11.dtd">
<svg version="1.1" id="Layer_1" xmlns="http://www.w3.org/2000/svg" xmlns:xlink="http://www.w3.org/1999/xlink" x="0px" y="0px"
	 width="275px" height="861px" viewBox="0 0 275 861" enable-background="new 0 0 275 861" xml:space="preserve">
<g>
	<path fill="#010101" d="M86.009,20.415c1.566,0.225,3.464,0.543,5.634,0.773c2.183,0.263,4.639,0.562,7.316,0.819
		c2.69,0.292,5.602,0.507,8.682,0.728c3.08,0.218,6.342,0.523,9.708,0.608c3.359,0.11,6.842,0.305,10.377,0.367
		c3.528,0.11,7.141,0.104,10.729,0.11c3.6-0.042,7.199-0.068,10.734-0.124c1.78,0.013,3.528-0.084,5.264-0.182
		c1.741-0.084,3.443-0.172,5.134-0.25c3.359-0.146,6.614-0.383,9.694-0.575c3.094-0.156,5.979-0.487,8.675-0.786
		c5.368-0.556,9.845-1.134,12.951-1.573c3.119-0.429,4.899-0.721,4.899-0.721s-1.807-0.117-4.951-0.214
		c-3.172-0.091-7.642-0.208-13.01-0.201c-2.696-0.007-5.614,0.013-8.688-0.029c-3.073-0.036-6.322-0.084-9.688-0.055
		c-3.334,0.013-6.811,0.019-10.306,0.036c-3.535-0.017-7.123-0.036-10.696-0.042c-3.567,0.042-7.154,0.104-10.683,0.049
		c-3.509-0.049-6.979,0.02-10.332,0.036c-3.353,0.007-6.602,0.02-9.682,0.039c-3.074,0.036-5.985,0.055-8.675,0.084
		c-2.69,0-5.153,0.042-7.336,0.084c-2.183,0.042-4.107,0.075-5.673,0.098c-3.151,0.075-4.958,0.124-4.958,0.124
		s0.448,0.078,1.274,0.224C83.234,19.976,84.456,20.2,86.009,20.415z"/>
	<path fill="#010101" d="M136.207,199.462c29.592,0,53.661-23.328,53.661-52.007s-24.068-52.007-53.661-52.007
		s-53.661,23.328-53.661,52.007C82.545,176.147,106.614,199.462,136.207,199.462z M136.207,100.195
		c26.98,0,48.923,21.203,48.923,47.26c0,26.061-21.943,47.264-48.923,47.264c-26.967,0-48.917-21.203-48.917-47.264
		C87.289,121.404,109.24,100.195,136.207,100.195z"/>
	<path fill="#010101" d="M136.928,191.606c25.934,0,47.033-20.105,47.033-44.817c0-24.712-21.1-44.801-47.033-44.801
		c-25.947,0-47.052,20.102-47.052,44.801C89.875,171.501,110.981,191.606,136.928,191.606z M136.928,104.35
		c24.628,0,44.688,19.033,44.688,42.439c0,23.406-20.04,42.445-44.688,42.445c-24.66,0-44.7-19.04-44.7-42.445
		C92.228,123.383,112.287,104.35,136.928,104.35z"/>
	<path fill="#010101" d="M266.993,473.966c-2.404-42.679-12.827-73.493-22.464-97.003c-9.617-23.497-24.861-95.015-28.878-109.245
		c-4.003-14.218-11.216-62.414-12.034-69.139c-0.104-0.806-0.24-3.061-0.416-6.368l4.25-0.247l-5.504-106.383l-1.501-0.182
		c-0.416-0.049-0.949-0.091-1.533-0.133c0.285-2.631,0.208-5.738,3.509-7.177c3.612-1.585,3.612-4.747,3.612-4.747
		c0.806-5.54-14.438-10.667-14.438-10.667v-1.585h0.234l9.695-2.021c2.118-0.445,3.84-1.774,5.133-3.954
		c5.433-9.182,1.904-32.425,0.039-38.562c-2.749-9.006-16.258-13.253-16.816-13.435L189.549,3H83.741L83.39,3.104
		c-0.572,0.182-14.062,4.435-16.817,13.435c-1.872,6.134-5.406,29.381,0.026,38.56c1.3,2.196,3.028,3.519,5.134,3.954l9.461,1.988
		h0.487v1.622c0,0-15.251,5.133-14.445,10.667c0,0,0,3.167,3.613,4.747c3.346,1.465,3.229,4.62,3.515,7.262
		c-1.54,0.02-2.391,0.042-2.45,0.042l-1.663,0.02l-6.043,109.301l5.731,0.058c-0.117,1.911-0.208,3.223-0.286,3.808
		c-0.806,6.719-8.032,54.921-12.034,69.139c-4.016,14.231-19.26,85.735-28.884,109.246c-9.624,23.51-20.047,54.317-22.47,97.003
		c-2.398,42.666-0.799,293.153,0,313.693c0.812,20.54,4.009,56.891,18.448,58.456c14.387,1.586,49.45,10.216,111.52,10.287l0,0
		c0.143,0,0.247,0,0.39,0c0.143,0,0.279,0,0.416,0l0,0c62.069-0.071,97.127-8.688,111.526-10.287
		c14.426-1.553,17.636-37.916,18.429-58.456C267.799,767.119,269.397,516.619,266.993,473.966z M72.708,54.419
		c-0.286-0.062-1.131-0.237-2.021-1.738c-4.106-6.927-1.689-27.812,0.436-34.774c1.611-5.29,9.871-9.02,13.334-10.173h104.358
		c3.457,1.137,11.71,4.864,13.354,10.173c2.112,6.962,4.529,27.847,0.423,34.774c-0.896,1.495-1.742,1.677-2.002,1.738l-9.233,1.917
		H81.922L72.708,54.419z M68.432,182.567H94.45c-1.937-2.223-3.704-4.601-5.277-7.109H68.834l0.091-1.774h19.176
		c-0.669-1.164-1.306-2.346-1.891-3.555h-17.09l3.405-61.631h22.691c1.131-1.244,2.313-2.427,3.535-3.551H72.733l0.104-1.78h27.974
		c3.359-2.784,7.038-5.169,10.988-7.109H73.228l0.403-7.138c9.006-0.136,52.92-0.77,86.645-0.77c19.936,0,32.763,0.221,38.28,0.646
		l0.377,7.262h-38.515c3.919,1.939,7.616,4.337,10.969,7.109h27.903l0.104,1.78h-25.966c1.222,1.125,2.417,2.32,3.548,3.551h22.613
		l3.19,61.631h-16.785c-0.598,1.208-1.228,2.391-1.897,3.555h18.852l0.098,1.774h-20.001c-1.573,2.508-3.341,4.886-5.283,7.109
		h25.66l0.3,6.037l-24.018,1.371l-0.662,0.039l-0.468,0.455c-0.144,0.137-14.4,13.432-40.841,13.432
		c-25.245,0-38.514-8.428-43.043-12.067l-0.475-0.377l-26.239-0.286L68.432,182.567z M249.637,586.947
		c-1.988,11.872-33.595,198.756-33.595,198.756s-69.939,2.749-79.419,2.749v-0.364h-4.744v0.364c-9.474,0-79.413-2.749-79.413-2.749
		S20.859,598.819,18.877,586.947c-1.975-11.839,3.165-14.218,7.109-12.645c3.951,1.585,11.859,2.371,15.011,0
		c3.165-2.365,3.951-10.273-1.196-22.906c-5.133-12.651,1.982-17.791,1.982-17.791c22.197-18.293,62.596-23.602,80.777-25.103
		c0.312-0.026,0.644-0.052,0.988-0.084c5.179-0.416,8.317-0.501,8.317-0.501v0.338c1.599,0,3.197,0.026,4.757,0.078v-0.416
		c0,0,3.197,0.085,8.493,0.501l0,0c17.772,1.416,59.055,6.614,81.57,25.187c0,0,7.122,5.14,1.988,17.791
		c-5.127,12.646-4.354,20.541-1.183,22.906c3.171,2.371,11.066,1.585,15.011,0C246.479,572.743,251.593,575.108,249.637,586.947z"/>
	<path fill="#010101" d="M234.971,590.424h-25.603l8.922-43.088c0.084-0.357,0.117-0.722,0.059-1.086
		c0.11-1.137-0.306-2.319-1.255-3.112c-20.722-17.232-58.482-21.944-73.771-23.152c-4.686-0.39-7.532-0.475-7.675-0.475
		c-0.539,0-1.091,0.11-1.598,0.351c-0.403-0.032-0.793-0.032-1.183-0.045c-0.494-0.221-1.001-0.318-1.553-0.306
		c-0.124,0-2.917,0.085-7.499,0.448c-0.331,0.026-0.656,0.052-0.903,0.078c-18.779,1.56-53.251,6.647-73.032,23.101
		c-1.007,0.838-1.475,2.17-1.196,3.464l8.922,43.082H32.004c-1.046,0-2.034,0.461-2.704,1.241c-0.676,0.818-0.975,1.878-0.806,2.892
		c1.716,10.409,29.268,174.83,29.54,176.5c0.273,1.663,1.69,2.904,3.36,2.956c2.515,0.11,61.686,2.45,70.003,2.45
		c0.54,0,1.04-0.11,1.501-0.306h1.163c0.448,0.208,0.975,0.306,1.508,0.306c8.317,0,67.489-2.353,69.991-2.45
		c1.683-0.052,3.086-1.293,3.359-2.956c0.286-1.657,27.824-165.356,29.553-175.766c0.169-1.015-0.11-2.073-0.779-2.879
		C236.998,590.898,236.017,590.424,234.971,590.424z M202.396,766.301c-11.605,0.468-54.739,2.138-65.357,2.332
		c-0.442-0.221-0.942-0.305-1.468-0.305h-4.172c-0.52,0-1.027,0.097-1.475,0.305c-10.605-0.194-53.739-1.864-65.351-2.332
		c-3.431-20.404-24.114-143.867-28.383-169.482h25.778c1.072,0,2.073-0.501,2.749-1.319c0.676-0.825,0.949-1.904,0.728-2.95
		l-9.371-45.239c19.312-14.718,53.375-19.014,67.476-20.183c0.221-0.026,0.481-0.039,0.792-0.053
		c2.554-0.228,4.523-0.305,5.751-0.377c0.383,0.149,0.806,0.234,1.254,0.234c1.384,0.013,2.775,0.059,4.12,0.084
		c0.533,0.026,1.046-0.097,1.546-0.305c1.248,0.059,3.223,0.169,5.744,0.363c14.231,1.138,48.762,5.394,68.256,20.346l-9.513,45.863
		c-0.221,1.06,0.071,2.131,0.728,2.963c0.663,0.832,1.689,1.307,2.781,1.307h25.752C226.49,623.096,205.813,745.948,202.396,766.301
		z"/>
	<path fill="#010101" d="M206.802,554.562c0.052-0.234,0.052-0.501,0.013-0.747c0.104-0.754-0.169-1.56-0.78-2.112
		c-17.791-15.388-50.347-19.599-63.505-20.709c-4.049-0.332-6.492-0.403-6.602-0.403c-0.449-0.045-0.864,0.098-1.222,0.306
		c-0.449-0.013-0.89-0.013-1.332-0.039c-0.351-0.182-0.78-0.279-1.17-0.267c-0.11,0-2.521,0.071-6.459,0.403
		c-0.286,0-0.572,0.039-0.793,0.052c-16.193,1.403-45.876,5.952-62.849,20.657c-0.63,0.553-0.929,1.391-0.78,2.223l8.006,45.284
		H46.195c-0.688,0-1.352,0.306-1.806,0.832c-0.442,0.514-0.65,1.222-0.533,1.917c1.488,9.37,25.33,157.5,25.577,159.001
		c0.182,1.085,1.104,1.937,2.235,1.976c2.183,0.098,53.388,2.209,60.588,2.209c0.416,0,0.806-0.11,1.144-0.306h1.306
		c0.331,0.208,0.721,0.306,1.15,0.306c7.187,0,58.404-2.111,60.588-2.209c1.111-0.059,2.054-0.891,2.235-1.976
		c0.234-1.501,24.088-148.968,25.59-158.357c0.11-0.67-0.085-1.378-0.546-1.904c-0.455-0.532-1.092-0.838-1.794-0.838h-23.12
		L206.802,554.562z M219.122,604.603c-3.327,20.885-22.152,137.259-24.81,153.659c-9.169,0.391-48.184,1.976-57.313,2.132
		c-0.351-0.182-0.714-0.292-1.13-0.292h-3.613c-0.416,0-0.806,0.11-1.125,0.292c-9.136-0.156-48.137-1.741-57.319-2.132
		C71.167,741.81,52.343,624.863,48.99,603.934h23.159c0.702,0,1.378-0.306,1.813-0.864c0.461-0.526,0.644-1.222,0.52-1.917
		l-8.259-46.728c16.791-13.646,46.838-17.597,59.197-18.682c0.208-0.014,0.429-0.026,0.688-0.039
		c2.313-0.208,4.094-0.293,5.146-0.345c0.279,0.137,0.624,0.221,0.975,0.221c1.196,0.014,2.417,0.039,3.574,0.053
		c0.403,0.032,0.832-0.085,1.195-0.247c1.099,0.025,2.847,0.136,5.159,0.331c12.451,1.026,42.914,4.951,59.848,18.793l-8.369,47.299
		c-0.117,0.676,0.077,1.403,0.526,1.943c0.448,0.525,1.11,0.831,1.825,0.831h23.134V604.603z"/>
</g>
</svg>
