<?xml version="1.0" encoding="utf-8"?>
<!-- Generator: Adobe Illustrator 16.0.0, SVG Export Plug-In . SVG Version: 6.00 Build 0)  -->
<!DOCTYPE svg PUBLIC "-//W3C//DTD SVG 1.1//EN" "http://www.w3.org/Graphics/SVG/1.1/DTD/svg11.dtd">
<svg version="1.1" id="Calque_1" xmlns="http://www.w3.org/2000/svg" xmlns:xlink="http://www.w3.org/1999/xlink" x="0px" y="0px"
	 width="100px" height="100px" viewBox="0 0 100 100" enable-background="new 0 0 100 100" xml:space="preserve">
<g id="Calque_2" display="none">
</g>
<g>
	<path d="M47.667,5.801c0.11,0.016,0.243,0.038,0.396,0.054c0.153,0.019,0.326,0.04,0.514,0.058c0.189,0.021,0.394,0.036,0.61,0.051
		c0.216,0.015,0.445,0.037,0.682,0.042c0.236,0.008,0.481,0.021,0.729,0.026c0.248,0.008,0.502,0.007,0.754,0.008
		c0.253-0.003,0.506-0.005,0.754-0.009c0.125,0.001,0.248-0.006,0.37-0.013c0.122-0.006,0.242-0.012,0.36-0.018
		c0.236-0.01,0.465-0.027,0.682-0.041c0.217-0.011,0.42-0.034,0.609-0.055c0.377-0.039,0.691-0.08,0.91-0.11
		c0.219-0.03,0.344-0.051,0.344-0.051s-0.127-0.008-0.348-0.015c-0.223-0.006-0.537-0.015-0.914-0.014
		c-0.189,0-0.395,0.001-0.61-0.002c-0.216-0.002-0.444-0.006-0.681-0.004c-0.234,0.001-0.479,0.001-0.725,0.002
		c-0.248-0.001-0.5-0.002-0.751-0.003c-0.251,0.003-0.503,0.007-0.751,0.003c-0.247-0.003-0.49,0.001-0.726,0.002
		c-0.235,0-0.464,0.001-0.68,0.003c-0.216,0.002-0.42,0.004-0.609,0.006c-0.189,0-0.362,0.003-0.516,0.006s-0.288,0.005-0.398,0.007
		c-0.222,0.005-0.348,0.009-0.348,0.009s0.031,0.005,0.089,0.016C47.471,5.771,47.557,5.786,47.667,5.801z"/>
	<path d="M51.193,18.381c2.079,0,3.771-1.639,3.771-3.654c0-2.015-1.691-3.654-3.771-3.654s-3.771,1.639-3.771,3.654
		C47.423,16.743,49.114,18.381,51.193,18.381z M51.193,11.407c1.896,0,3.438,1.49,3.438,3.321s-1.542,3.321-3.438,3.321
		c-1.895,0-3.437-1.49-3.437-3.321C47.756,12.897,49.298,11.407,51.193,11.407z"/>
	<path d="M51.244,17.83c1.822,0,3.305-1.413,3.305-3.149s-1.482-3.148-3.305-3.148c-1.823,0-3.306,1.413-3.306,3.148
		C47.938,16.417,49.421,17.83,51.244,17.83z M51.244,11.699c1.73,0,3.14,1.337,3.14,2.982s-1.408,2.982-3.14,2.982
		c-1.732,0-3.141-1.338-3.141-2.982S49.513,11.699,51.244,11.699z"/>
	<path d="M60.383,37.669c-0.169-2.999-0.901-5.164-1.578-6.815c-0.676-1.651-1.747-6.676-2.029-7.676
		c-0.281-0.999-0.788-4.386-0.846-4.858c-0.007-0.057-0.017-0.215-0.029-0.448l0.299-0.017l-0.387-7.475l-0.105-0.013
		c-0.029-0.003-0.066-0.006-0.107-0.009c0.02-0.185,0.015-0.403,0.246-0.504C56.1,9.742,56.1,9.52,56.1,9.52
		c0.057-0.389-1.015-0.75-1.015-0.75V8.659h0.017l0.682-0.142c0.148-0.031,0.27-0.125,0.36-0.278
		c0.382-0.645,0.134-2.278,0.003-2.709c-0.193-0.633-1.143-0.931-1.182-0.944l-0.023-0.008h-7.435l-0.024,0.007
		c-0.04,0.013-0.988,0.312-1.182,0.944c-0.131,0.431-0.38,2.064,0.002,2.709c0.091,0.154,0.213,0.247,0.361,0.278l0.665,0.14h0.034
		V8.77c0,0-1.071,0.361-1.015,0.75c0,0,0,0.223,0.254,0.333c0.235,0.103,0.227,0.325,0.247,0.51
		c-0.108,0.001-0.168,0.003-0.172,0.003l-0.117,0.001l-0.424,7.68l0.402,0.004c-0.008,0.134-0.015,0.227-0.02,0.267
		c-0.056,0.472-0.564,3.859-0.845,4.858c-0.282,1-1.354,6.024-2.03,7.676c-0.676,1.652-1.409,3.817-1.579,6.815
		c-0.168,2.999-0.056,20.598,0,22.042c0.057,1.443,0.282,3.997,1.296,4.107c1.01,0.111,3.474,0.718,7.835,0.723l0,0
		c0.01,0,0.018,0,0.027,0s0.02,0,0.029,0l0,0c4.361-0.005,6.824-0.61,7.836-0.723c1.014-0.109,1.239-2.664,1.295-4.107
		C60.439,58.267,60.552,40.667,60.383,37.669z M46.732,8.19c-0.02-0.004-0.08-0.017-0.142-0.122
		c-0.289-0.487-0.119-1.954,0.03-2.443c0.113-0.372,0.694-0.634,0.938-0.715h7.332c0.243,0.08,0.823,0.342,0.938,0.715
		c0.148,0.489,0.318,1.957,0.029,2.443c-0.062,0.105-0.122,0.118-0.141,0.122l-0.648,0.135h-7.689L46.732,8.19z M46.432,17.195
		h1.828c-0.136-0.156-0.261-0.324-0.371-0.5h-1.429l0.006-0.125h1.348c-0.047-0.082-0.092-0.165-0.133-0.25h-1.201l0.24-4.331h1.594
		c0.079-0.087,0.162-0.17,0.249-0.25h-1.829l0.007-0.125h1.966c0.236-0.196,0.494-0.363,0.772-0.5h-2.71l0.028-0.501
		c0.633-0.01,3.718-0.054,6.088-0.054c1.4,0,2.302,0.016,2.689,0.045l0.026,0.51h-2.706c0.275,0.136,0.535,0.305,0.771,0.5h1.961
		l0.007,0.125h-1.824c0.086,0.079,0.17,0.163,0.249,0.25h1.589l0.225,4.331h-1.18c-0.042,0.085-0.086,0.168-0.133,0.25h1.324
		l0.007,0.125h-1.405c-0.11,0.176-0.234,0.344-0.371,0.5h1.803l0.021,0.424l-1.688,0.097l-0.047,0.002L54.17,17.75
		c-0.01,0.01-1.012,0.944-2.869,0.944c-1.774,0-2.706-0.592-3.024-0.848l-0.033-0.026l-1.844-0.02L46.432,17.195z M59.163,45.607
		c-0.14,0.833-2.36,13.965-2.36,13.965s-4.914,0.193-5.58,0.193V59.74H50.89v0.025c-0.666,0-5.58-0.193-5.58-0.193
		s-2.221-13.131-2.36-13.965c-0.139-0.833,0.222-0.999,0.499-0.888c0.278,0.111,0.833,0.167,1.055,0
		c0.222-0.167,0.277-0.722-0.084-1.61c-0.361-0.888,0.139-1.25,0.139-1.25c1.56-1.285,4.398-1.659,5.676-1.764
		c0.021-0.002,0.045-0.004,0.069-0.006c0.364-0.029,0.585-0.035,0.585-0.035v0.023c0.112,0.001,0.225,0.003,0.334,0.007v-0.03
		c0,0,0.225,0.006,0.597,0.036l0,0c1.249,0.099,4.149,0.464,5.731,1.769c0,0,0.5,0.361,0.14,1.25s-0.306,1.444-0.083,1.61
		s0.777,0.111,1.055,0C58.941,44.609,59.301,44.775,59.163,45.607z"/>
	<path d="M58.133,45.852h-1.799l0.627-3.028c0.006-0.025,0.008-0.051,0.004-0.077c0.008-0.08-0.021-0.163-0.088-0.218
		c-1.456-1.212-4.109-1.542-5.184-1.627c-0.329-0.027-0.529-0.033-0.539-0.033c-0.038,0-0.077,0.007-0.112,0.024
		c-0.028-0.002-0.056-0.002-0.083-0.002c-0.035-0.016-0.07-0.023-0.109-0.021c-0.009,0-0.205,0.006-0.527,0.031
		c-0.023,0.001-0.046,0.003-0.063,0.006c-1.32,0.109-3.742,0.467-5.131,1.623c-0.071,0.059-0.104,0.152-0.084,0.243l0.627,3.027
		h-1.799c-0.074,0-0.143,0.032-0.19,0.087c-0.047,0.057-0.068,0.131-0.057,0.203c0.121,0.731,2.057,12.284,2.076,12.401
		c0.02,0.117,0.119,0.204,0.236,0.208c0.176,0.008,4.334,0.172,4.918,0.172c0.038,0,0.073-0.008,0.105-0.021h0.082
		c0.031,0.015,0.068,0.021,0.105,0.021c0.585,0,4.742-0.165,4.918-0.172c0.118-0.004,0.217-0.091,0.236-0.208
		c0.02-0.116,1.955-11.619,2.076-12.35c0.012-0.072-0.008-0.146-0.055-0.202C58.275,45.884,58.206,45.852,58.133,45.852z
		 M55.844,58.209c-0.815,0.033-3.846,0.15-4.592,0.164c-0.031-0.016-0.066-0.021-0.104-0.021h-0.293
		c-0.036,0-0.072,0.007-0.104,0.021c-0.745-0.014-3.776-0.131-4.592-0.164c-0.241-1.434-1.694-10.108-1.994-11.908h1.811
		c0.076,0,0.146-0.035,0.193-0.093c0.047-0.058,0.066-0.134,0.051-0.207l-0.659-3.179c1.357-1.034,3.75-1.335,4.741-1.418
		c0.016-0.001,0.034-0.003,0.056-0.004c0.18-0.015,0.318-0.021,0.404-0.026c0.027,0.011,0.057,0.017,0.088,0.017
		c0.098,0,0.195,0.003,0.29,0.005c0.037,0.001,0.073-0.007,0.108-0.021c0.088,0.004,0.227,0.012,0.403,0.026
		c1,0.08,3.427,0.378,4.796,1.429l-0.668,3.223c-0.016,0.074,0.005,0.149,0.051,0.208c0.047,0.059,0.119,0.092,0.195,0.092h1.81
		C57.537,48.147,56.084,56.779,55.844,58.209z"/>
	<path d="M56.153,43.333c0.004-0.017,0.004-0.036,0.001-0.053c0.008-0.053-0.012-0.11-0.055-0.149
		c-1.25-1.081-3.537-1.377-4.462-1.455c-0.284-0.024-0.456-0.029-0.464-0.029c-0.031-0.002-0.061,0.007-0.086,0.021
		c-0.031-0.001-0.062-0.001-0.094-0.002c-0.024-0.013-0.055-0.021-0.082-0.019c-0.008,0-0.177,0.005-0.454,0.028
		c-0.021,0-0.041,0.003-0.056,0.003c-1.138,0.099-3.224,0.418-4.416,1.452c-0.044,0.039-0.065,0.098-0.055,0.156l0.562,3.182h-1.625
		c-0.048,0-0.095,0.021-0.127,0.059c-0.031,0.036-0.046,0.085-0.038,0.134c0.104,0.659,1.78,11.067,1.797,11.172
		c0.013,0.076,0.078,0.136,0.157,0.139c0.153,0.007,3.751,0.155,4.257,0.155c0.029,0,0.057-0.008,0.08-0.021h0.092
		c0.023,0.015,0.051,0.021,0.081,0.021c0.505,0,4.104-0.148,4.257-0.155c0.078-0.004,0.145-0.062,0.157-0.139
		c0.017-0.105,1.692-10.467,1.798-11.126c0.008-0.047-0.006-0.097-0.038-0.134s-0.077-0.059-0.126-0.059h-1.625L56.153,43.333z
		 M57.02,46.848c-0.234,1.468-1.557,9.645-1.743,10.797c-0.645,0.027-3.386,0.139-4.027,0.149c-0.024-0.013-0.05-0.021-0.079-0.021
		h-0.254c-0.029,0-0.057,0.008-0.079,0.021c-0.642-0.011-3.382-0.122-4.027-0.149c-0.186-1.156-1.509-9.373-1.744-10.844h1.627
		c0.05,0,0.097-0.021,0.127-0.06c0.032-0.038,0.045-0.086,0.037-0.136l-0.58-3.283c1.18-0.959,3.291-1.236,4.159-1.312
		c0.015-0.001,0.03-0.002,0.048-0.003c0.163-0.014,0.288-0.021,0.362-0.024c0.02,0.01,0.044,0.015,0.068,0.015
		c0.084,0.001,0.17,0.003,0.251,0.005c0.028,0.001,0.059-0.006,0.084-0.019c0.077,0.003,0.2,0.01,0.362,0.023
		c0.875,0.073,3.016,0.348,4.205,1.321l-0.588,3.323c-0.008,0.048,0.006,0.099,0.037,0.137c0.031,0.037,0.078,0.059,0.128,0.059
		L57.02,46.848L57.02,46.848z"/>
</g>
<text transform="matrix(1 0 0 1 14.2593 84.4443)" display="none" enable-background="new    " font-family="'HelveticaNeue-Bold'" font-size="3.7037">Created by mmejules</text>
<text transform="matrix(1 0 0 1 14.2593 88.1484)" display="none" enable-background="new    " font-family="'HelveticaNeue-Bold'" font-size="3.7037">from the Noun Project</text>
</svg>
