<?xml version="1.0" encoding="utf-8"?>
<!-- Generator: Adobe Illustrator 16.0.0, SVG Export Plug-In . SVG Version: 6.00 Build 0)  -->
<!DOCTYPE svg PUBLIC "-//W3C//DTD SVG 1.1//EN" "http://www.w3.org/Graphics/SVG/1.1/DTD/svg11.dtd">
<svg version="1.1" id="Layer_1" xmlns="http://www.w3.org/2000/svg" xmlns:xlink="http://www.w3.org/1999/xlink" x="0px" y="0px"
	 width="100px" height="100px" viewBox="0 0 100 100" enable-background="new 0 0 100 100" xml:space="preserve">
<g display="none">
	<path display="inline" d="M33.077,27.942c0.308,0.153,0.655,0.326,1.019,0.509l2.296,1.126c-0.355,0.492-0.624,0.957-1.707,2.325
		c-2.138,2.7-6.077,7.674-5.849,11.137c1.032-0.202,3.505-1.689,5.196-2.708c3.144-1.893,6.113-3.681,8.296-3.681
		c0.008,0,0.014,0,0.021,0c3.32,0.019,4.741,4.207,5.995,7.902c0.39,1.147,0.937,2.764,1.39,3.533
		c0.29-1.005,0.449-3.068,0.554-4.402c0.16-2.062,0.312-4.011,0.776-5.299c1.15-3.18,7.52-1.705,16.391,0.726
		c0.699,0.192,1.355,0.372,1.939,0.526c-1.332-1.716-3.746-4.327-5.233-5.937c-1.702-1.842-3.068-3.564-3.677-4.433
		c0.511-0.333,1.08-0.684,1.541-0.969c2.599-1.598,4.086-2.562,4.461-3.797c0.15-0.496,0.076-1.027-0.199-1.457
		c-0.505-0.783-1.456-0.909-1.77-0.951c-3.062-0.406-12.854,1.427-16.771,2.67c0.408-4.805,1.972-8.129-0.823-12.009
		c-1.954-2.711-4.21,0.099-2.819,2.03c1.934,2.683,0.659,4.966,0.126,10.278c-0.176-0.076-0.367-0.16-0.57-0.25
		c-1.188-0.526-2.81-1.245-5.365-2.023c-1.621-0.494-3.142-0.837-4.518-1.02c-3.556-0.471-5.159,0.257-5.443,0.408l-0.421,0.223
		l-0.218,0.423c-0.215,0.418-0.251,0.901-0.101,1.358C27.964,25.313,29.314,26.069,33.077,27.942z"/>
	<path display="inline" d="M64.999,30.876c0.306,0.375,0.63,0.759,0.981,1.14c6.024,6.517,7.435,8.346,6.631,9.766
		c-0.17,0.302-0.701,0.978-1.975,0.715c-0.9-0.186-2.265-0.56-3.842-0.992c-2.561-0.702-5.74-1.574-8.479-2.069
		c-3.877-0.702-4.793-0.256-4.938-0.159c-0.34,0.984-0.48,2.821-0.62,4.599c-0.28,3.629-0.521,5.895-1.837,6.745
		c-0.314,0.204-0.67,0.309-1.038,0.309c-0.237,0-0.479-0.043-0.718-0.131c-1.512-0.544-2.246-2.709-3.175-5.449
		c-0.889-2.62-2.107-6.208-3.657-6.217c-0.003,0-0.007,0-0.01,0c-1.491,0-4.553,1.844-7.014,3.326
		c-3.892,2.343-6.17,3.631-7.759,2.86c-0.373-0.181-1.021-0.647-1.157-1.729c-0.544-4.326,3.424-9.534,6.028-12.831
		c-9.964,4.359-16.742,12.703-18.205,22.458c-0.977,6.518,0.7,15.043,3.456,19.471c3.283,5.271,8.783,9.41,16.951,12.262
		c3.91,1.363,9.208,2.861,14.19,3.516c19.749,2.596,34.823-9.172,37.02-25.753C87.589,49.484,78.911,36.751,64.999,30.876z
		 M80.695,62.006c-0.328,1.646-1.116,4.934-2.693,8.439c-2.689,5.977-8.595,8.814-9.785,8.658c0,0,0,0-0.001,0
		c-0.103-0.016-0.198-0.039-0.29-0.082c-0.304-0.138-0.507-0.414-0.542-0.741c-0.063-0.601,0.312-0.88,1.22-1.552
		c1.58-1.168,4.869-3.604,6.666-7.596c1.479-3.288,2.408-6.67,3.025-8.906c0.725-2.634,0.943-3.427,1.915-3.297l0.129,0.018
		l0.138,0.058C80.923,57.208,81.598,57.511,80.695,62.006z"/>
</g>
<g>
	<path fill="#FFFFFF" d="M36.471,47.834c-0.496,0-0.979,0.199-1.33,0.551c-0.35,0.35-0.551,0.835-0.551,1.329v0.077v0.28v0.079
		c0,0.493,0.202,0.979,0.551,1.328c0.35,0.351,0.834,0.55,1.33,0.55c0.497,0,0.979-0.199,1.33-0.55
		c0.35-0.352,0.551-0.835,0.551-1.328v-0.079v-0.28v-0.077c0-0.494-0.201-0.979-0.551-1.329
		C37.451,48.033,36.968,47.834,36.471,47.834z"/>
	<path fill="#FFFFFF" d="M63.611,49.996c0-0.496-0.199-0.981-0.55-1.331c-0.352-0.35-0.835-0.55-1.329-0.55
		c-0.497,0-0.979,0.2-1.332,0.55c-0.349,0.352-0.548,0.835-0.548,1.331v0.017v0.058v0.281v0.077c0,0.494,0.199,0.98,0.548,1.327
		c0.351,0.352,0.835,0.551,1.332,0.551c0.494,0,0.978-0.2,1.329-0.551c0.351-0.35,0.55-0.833,0.55-1.327v-0.077v-0.141v-0.13
		c0-0.004,0-0.006,0-0.012V49.996z"/>
	<path fill="#FFFFFF" d="M56.556,54.25c-0.912-0.494-2.054-0.156-2.55,0.758c-0.506,0.926-1.147,1.521-1.895,1.934
		c-0.744,0.406-1.612,0.605-2.508,0.605c-1.06,0-2.143-0.291-3-0.777c-0.865-0.484-1.478-1.146-1.767-1.832
		c-0.406-0.955-1.51-1.396-2.467-0.989c-0.953,0.407-1.398,1.509-0.99,2.466c0.687,1.601,1.933,2.816,3.377,3.634
		c1.452,0.815,3.129,1.255,4.847,1.259c1.45,0,2.941-0.319,4.3-1.06c1.358-0.729,2.574-1.894,3.41-3.445
		C57.806,55.887,57.468,54.746,56.556,54.25z"/>
	<path fill="#FFFFFF" d="M86.842,55.09L86.842,55.09c-0.073-9.034-2.438-18.663-8.488-26.144c-3.021-3.735-6.972-6.906-11.937-9.118
		c-4.966-2.215-10.929-3.471-17.976-3.47H48.23h-0.052c-10.78-0.013-19.915,3.854-26.25,10.76
		c-6.345,6.898-9.853,16.72-9.849,28.412c-0.001,6.018,1.296,11.293,3.512,15.778c3.324,6.732,8.683,11.652,14.654,14.871
		c5.977,3.218,12.579,4.77,18.588,4.771c11.977,0.009,21.55-4.287,28.055-10.919c6.511-6.629,9.959-15.534,9.956-24.666
		L86.842,55.09z M83.082,55.364c0,8.189-3.086,16.138-8.878,22.029c-5.797,5.891-14.288,9.788-25.373,9.797
		c-7.154,0.008-15.51-2.521-21.942-7.729c-3.221-2.603-5.975-5.86-7.93-9.822c-1.956-3.96-3.123-8.63-3.123-14.114
		c0.002-10.957,3.263-19.781,8.857-25.866c5.602-6.08,13.579-9.533,23.485-9.546h0.056c0.003,0,0.004,0,0.007,0
		c0.002,0,0.002,0,0.005,0h0.195c6.606,0.001,12.021,1.172,16.442,3.145c6.628,2.964,11.092,7.722,13.992,13.368
		c2.891,5.643,4.16,12.184,4.207,18.485L83.082,55.364L83.082,55.364z"/>
</g>
</svg>
